<svg xmlns="http://www.w3.org/2000/svg" viewBox="0 0 400 100" width="400" height="100">
  <defs>
    <linearGradient id="g" x1="0%" y1="0%" x2="100%" y2="100%">
      <stop offset="0%" stop-color="#6C63FF"/>
      <stop offset="100%" stop-color="#00D4AA"/>
    </linearGradient>
  </defs>
  <g transform="translate(10,10)">
    <path d="M55,10 C80,10 90,30 90,55 C90,78 75,92 55,92 C32,92 18,78 18,55 C18,30 30,10 55,10 Z" fill="none" stroke="url(#g)" stroke-width="3"/>
    <circle cx="40" cy="40" r="5" fill="#6C63FF"/>
    <circle cx="68" cy="32" r="5" fill="#00D4AA"/>
    <circle cx="45" cy="65" r="5" fill="#6C63FF"/>
    <circle cx="62" cy="60" r="5" fill="#00D4AA"/>
    <line x1="40" y1="40" x2="68" y2="32" stroke="url(#g)" stroke-width="2.5"/>
    <line x1="68" y1="32" x2="45" y2="65" stroke="url(#g)" stroke-width="2.5"/>
    <line x1="45" y1="65" x2="62" y2="60" stroke="url(#g)" stroke-width="2.5"/>
    <line x1="62" y1="60" x2="40" y2="40" stroke="url(#g)" stroke-width="2.5"/>
  </g>
  <text x="115" y="48" font-family="'Inter','Segoe UI',sans-serif" font-size="38" font-weight="800" fill="url(#g)">Neura</text>
  <text x="117" y="68" font-family="'Inter','Segoe UI',sans-serif" font-size="13" font-weight="600" fill="#64748B" letter-spacing="4">MEDICAL INTELLIGENCE</text>
</svg>